<?xml version="1.0" standalone="no"?>
<!DOCTYPE svg PUBLIC "-//W3C//DTD SVG 20010904//EN"
 "http://www.w3.org/TR/2001/REC-SVG-20010904/DTD/svg10.dtd">
<svg version="1.0" xmlns="http://www.w3.org/2000/svg"
 width="512.000000pt" height="512.000000pt" viewBox="0 0 512.000000 512.000000"
 preserveAspectRatio="xMidYMid meet">
<metadata>
Created by potrace 1.16, written by Peter Selinger 2001-2019
</metadata>
<g transform="translate(0.000000,512.000000) scale(0.100000,-0.100000)"
fill="#000000" stroke="none">
<path d="M3042 4171 c-108 -37 -151 -107 -152 -244 0 -108 -16 -146 -76 -188
l-43 -29 -73 19 c-40 11 -125 29 -188 41 -63 11 -155 28 -203 37 l-88 17 -52
-28 c-29 -16 -60 -36 -71 -45 -29 -25 -56 -87 -56 -128 0 -21 -5 -54 -10 -73
-6 -19 -22 -83 -37 -141 -23 -85 -34 -111 -57 -130 -35 -31 -42 -95 -12 -128
23 -26 15 -71 -14 -71 -38 0 -50 -71 -25 -149 7 -20 5 -22 -12 -17 -28 9 -53
-17 -53 -54 0 -18 -10 -39 -25 -54 -21 -21 -25 -35 -25 -81 0 -51 -2 -55 -23
-55 -47 0 -94 -87 -78 -145 7 -27 5 -43 -15 -84 -12 -28 -29 -51 -37 -51 -23
0 -47 -35 -47 -69 0 -38 -14 -67 -92 -188 -33 -50 -64 -107 -69 -126 -11 -41
-176 -222 -312 -341 -108 -96 -145 -144 -205 -264 -41 -83 -47 -104 -52 -180
-4 -48 -12 -100 -19 -116 -13 -33 -7 -74 20 -127 22 -43 63 -80 139 -123 48
-27 52 -31 30 -34 -42 -5 -130 -32 -130 -40 1 -30 20 -33 316 -41 335 -9 422
-5 448 22 10 9 22 18 27 18 5 1 14 3 19 4 6 1 15 3 21 4 5 0 7 6 4 12 -4 6 -1
9 6 8 8 -1 21 0 29 3 8 3 68 20 133 37 404 106 872 351 1202 627 131 110 326
252 552 402 117 78 222 156 235 173 13 17 69 67 126 110 92 72 101 82 91 100
-5 11 -16 22 -24 25 -18 7 -221 -160 -228 -189 -5 -16 -70 -65 -224 -167 -120
-80 -292 -200 -382 -268 -112 -84 -169 -121 -180 -116 -39 16 -51 16 -51 1 0
-15 -80 -81 -88 -73 -10 11 41 135 69 169 51 62 274 234 459 355 232 151 238
155 440 311 188 146 287 234 330 293 23 32 30 36 40 23 9 -11 5 -22 -21 -55
-41 -50 -104 -102 -366 -299 -112 -84 -203 -155 -203 -157 0 -7 10 -1 97 58
146 98 400 293 461 355 47 48 64 60 68 48 4 -8 1 -29 -6 -46 -17 -39 -179
-189 -205 -189 -12 0 -63 -36 -115 -81 -52 -45 -175 -135 -272 -201 -174 -116
-226 -158 -130 -102 129 74 248 157 351 243 62 53 122 102 132 109 25 19 55 7
69 -28 19 -47 49 -39 124 31 70 65 116 143 116 195 0 43 -64 132 -192 265 -40
42 -39 40 -63 152 -13 61 -24 87 -50 115 -18 21 -36 53 -39 72 -9 45 -64 212
-88 270 -11 25 -30 56 -43 70 -13 14 -31 43 -39 65 -8 22 -62 137 -120 256
-97 198 -111 220 -169 276 -105 101 -212 143 -361 143 -62 -1 -108 -7 -144
-19z m188 -23 c-79 -17 -126 -38 -169 -74 -57 -50 -73 -85 -81 -185 -9 -100
-33 -155 -85 -195 -21 -16 -34 -33 -31 -41 6 -15 -11 -8 -47 19 -18 13 -16 16
21 40 63 42 82 83 88 185 7 129 12 149 41 184 44 51 127 76 258 76 l50 1 -45
-10z m165 -57 c22 -43 62 -208 66 -271 7 -94 -18 -70 -78 75 -54 135 -62 171
-41 205 18 28 35 25 53 -9z m66 -9 c57 -37 122 -111 155 -177 26 -54 53 -179
41 -191 -3 -4 -27 8 -53 25 -44 29 -66 36 -105 32 -13 -1 -18 12 -23 62 -7 75
-41 207 -62 249 -18 35 -9 35 47 0z m-185 -387 c4 -34 1 -61 -8 -85 -14 -34
-14 -34 -10 30 3 44 -3 94 -17 153 -12 49 -21 101 -20 115 1 32 45 -141 55
-213z m-858 50 c92 -14 200 -34 241 -45 67 -19 151 -55 151 -64 0 -3 -24 -2
-53 1 -67 7 -148 -16 -205 -57 -23 -16 -42 -28 -42 -26 0 2 7 20 15 41 30 70
-1 96 -138 121 -96 16 -181 18 -208 4 -27 -15 -44 -53 -64 -145 -17 -75 -27
-94 -49 -95 -14 0 2 169 20 207 20 40 42 54 109 69 28 7 51 12 53 13 1 0 78
-10 170 -24z m1183 -22 l55 -36 -8 -61 c-12 -86 -46 -205 -70 -243 -11 -19
-36 -46 -56 -61 -33 -25 -42 -27 -159 -31 l-124 -3 20 33 c14 23 21 51 21 87
0 46 2 52 21 52 82 0 148 96 153 223 2 29 7 52 12 52 12 0 8 -108 -5 -146 -6
-16 -6 -27 -2 -25 14 9 31 91 31 145 0 49 1 51 28 51 16 0 53 -16 83 -37z
m112 -56 l25 -67 -37 0 -37 0 10 70 c5 38 11 69 12 67 2 -1 14 -33 27 -70z
m-1378 23 c113 -16 135 -26 135 -61 0 -16 -9 -48 -19 -72 -11 -23 -36 -87 -57
-142 -48 -132 -59 -152 -92 -169 -35 -18 -122 -36 -174 -36 -40 0 -40 0 -34
32 3 17 8 33 10 35 2 2 25 -1 50 -8 68 -17 135 -7 162 25 25 28 98 250 90 271
-7 18 -66 29 -123 22 -31 -3 -54 -13 -71 -31 -35 -34 -23 -42 23 -14 37 21
125 31 141 15 9 -8 -64 -228 -81 -246 -8 -8 -35 -13 -75 -12 -88 1 -100 6
-100 43 0 43 49 298 62 323 21 39 37 41 153 25z m678 -152 c94 -24 164 -44
155 -46 -9 -2 -83 13 -164 32 -185 43 -295 60 -335 51 -37 -8 -104 -66 -126
-109 -14 -28 -43 -119 -43 -138 0 -5 5 -8 10 -8 6 0 10 11 10 25 0 78 80 195
146 211 29 7 183 -11 196 -24 8 -8 -8 -141 -22 -178 -7 -16 -20 -25 -47 -30
-69 -12 -139 -33 -113 -33 22 0 53 5 138 24 31 7 50 55 58 144 4 39 8 71 9 71
2 0 59 -13 128 -30 69 -16 135 -30 146 -30 13 0 21 -7 22 -17 5 -79 -17 -93
-190 -127 -242 -47 -421 -116 -421 -161 0 -15 -2 -15 -17 0 -23 23 -58 35
-104 35 -48 0 -49 10 -14 116 33 99 58 146 102 195 91 100 166 104 476 27z
m751 30 c9 -12 23 -44 32 -71 11 -33 23 -51 39 -57 33 -12 49 -41 80 -139 63
-204 49 -237 -191 -437 -61 -51 -146 -133 -189 -183 -43 -50 -80 -90 -81 -88
-5 5 36 201 52 251 9 28 30 78 47 111 31 62 238 383 248 384 5 1 32 -107 45
-181 7 -41 19 -48 40 -20 17 22 17 57 -1 156 -16 90 -33 113 -90 126 -50 11
-67 1 -26 -16 17 -7 31 -19 31 -27 0 -7 -44 -79 -98 -158 -180 -265 -211 -331
-252 -534 -21 -105 -44 -160 -89 -212 -11 -13 -21 -23 -24 -23 -5 0 57 307 73
356 21 64 58 132 150 274 96 148 138 227 165 309 11 33 24 55 35 58 14 4 16
11 10 36 -13 52 -20 65 -43 71 -49 13 -55 8 -67 -51 -6 -32 -27 -118 -46 -192
-29 -116 -41 -146 -91 -225 -100 -161 -141 -246 -163 -341 l-21 -91 -82 -69
c-45 -38 -138 -123 -206 -190 -200 -195 -302 -330 -361 -479 -36 -89 -37 -89
-82 -103 -83 -24 -138 -70 -205 -173 -77 -118 -141 -178 -277 -258 -346 -207
-656 -336 -865 -362 l-85 -10 -37 39 c-38 39 -61 50 -194 93 -70 23 -70 23
-73 62 -4 50 11 110 45 182 l26 55 26 -25 c37 -36 48 -32 17 5 -28 33 -31 46
-16 69 8 12 10 9 10 -12 0 -89 293 -185 483 -159 121 17 282 87 515 225 59 35
150 87 202 116 219 121 250 186 151 316 l-39 52 72 71 c40 39 94 100 122 135
l49 63 113 38 c201 67 416 186 501 279 37 40 16 43 -27 4 -61 -55 -157 -117
-261 -168 -98 -49 -290 -124 -297 -117 -8 8 117 186 226 322 209 262 300 337
431 352 l52 6 -6 -44 c-6 -44 -22 -64 -91 -112 -18 -13 -26 -27 -26 -48 0 -34
4 -34 91 3 67 28 95 63 130 159 16 46 52 120 78 164 55 90 71 132 50 122 -8
-3 -57 -25 -109 -48 -52 -23 -181 -70 -287 -105 -105 -34 -218 -75 -250 -91
-78 -38 -172 -133 -272 -275 -45 -65 -87 -120 -92 -124 -23 -14 -18 7 16 68
23 43 35 78 35 104 0 65 43 139 128 223 90 90 181 146 367 226 163 70 190 94
190 170 0 45 3 55 17 55 22 0 32 -38 23 -88 -11 -59 -79 -116 -235 -196 -196
-100 -309 -168 -369 -222 -51 -46 -111 -134 -111 -164 0 -8 14 10 31 40 60
110 134 166 409 310 96 50 190 103 208 117 32 24 38 25 125 18 203 -15 278 42
323 241 l16 74 43 0 c34 0 47 -5 59 -22z m-516 -85 c-10 -2 -26 -2 -35 0 -10
3 -2 5 17 5 19 0 27 -2 18 -5z m-1233 -153 c-10 -50 -21 -93 -26 -95 -16 -11
-20 17 -6 48 8 18 21 58 28 90 20 91 23 57 4 -43z m-27 -124 c28 -18 106 -62
174 -97 l123 -63 -57 -8 c-51 -8 -63 -6 -110 18 -98 49 -185 113 -192 140 -6
22 -1 44 9 44 1 0 26 -15 53 -34z m510 -32 c7 -2 12 -14 10 -26 -3 -22 -7 -23
-161 -31 -140 -7 -162 -6 -184 8 -15 10 -22 20 -16 26 23 23 296 41 351 23z
m-542 -143 c-14 -32 -26 -66 -26 -75 0 -21 -9 -20 -26 2 -23 29 -17 71 10 82
13 5 32 23 42 40 29 48 29 15 0 -49z m134 -2 c0 -6 -3 -8 -7 -6 -5 2 -16 7
-26 10 -10 4 -15 11 -12 17 7 12 45 -5 45 -21z m978 22 c-1 -6 -76 -97 -165
-204 -160 -191 -292 -367 -355 -472 -35 -58 -47 -65 -125 -65 -80 0 -98 23
-93 120 2 59 8 67 50 73 77 10 119 46 220 188 167 233 230 288 402 349 62 22
71 23 66 11z m-704 -27 c9 -3 16 -14 16 -24 0 -21 -19 -30 -61 -30 -49 0 -180
-30 -220 -51 -31 -15 -38 -25 -44 -59 -7 -42 -20 -49 -56 -30 -20 11 -24 60
-10 125 6 28 10 30 51 31 25 0 77 8 115 17 39 9 79 18 90 20 32 7 102 8 119 1z
m1636 -41 c0 -53 -35 -117 -88 -161 -52 -44 -284 -203 -289 -199 -1 2 3 20 9
41 10 32 34 56 133 136 123 99 169 145 201 199 22 37 34 31 34 -16z m64 -78
c8 -44 19 -93 25 -108 6 -16 12 -47 13 -68 3 -78 -58 -137 -324 -320 -146
-101 -254 -187 -244 -196 2 -3 33 17 68 44 34 27 135 100 223 161 243 169 305
230 305 302 0 38 13 38 40 0 20 -28 20 -31 4 -65 -9 -19 -42 -57 -73 -83 -46
-40 -354 -272 -726 -547 -85 -63 -280 -228 -353 -299 -69 -66 -86 -94 -120
-201 l-29 -89 -79 -54 c-76 -52 -81 -54 -129 -48 -28 3 -72 13 -98 22 -59 20
-72 12 -87 -59 -12 -60 -32 -93 -78 -132 -18 -15 -31 -34 -28 -41 6 -17 -30
-36 -184 -98 -231 -94 -443 -151 -650 -177 -183 -22 -281 5 -414 115 -58 48
-83 61 -172 89 -97 30 -128 47 -86 47 10 0 58 -13 106 -30 66 -22 102 -41 147
-80 34 -27 72 -53 86 -56 102 -26 372 55 658 195 178 88 657 362 746 427 59
43 127 116 174 187 l38 57 69 0 c83 0 119 14 178 72 25 23 74 68 110 98 36 30
133 120 215 200 124 120 189 172 378 305 l227 160 -6 40 c-3 22 -8 42 -9 43
-4 4 -368 -226 -445 -281 -72 -52 -204 -181 -406 -399 -180 -194 -181 -194
-294 -186 l-45 3 150 151 c146 148 207 194 258 194 16 0 61 37 153 129 116
115 153 144 338 266 232 152 288 198 285 229 -2 12 7 40 19 63 13 24 22 60 22
85 0 38 2 41 15 27 8 -8 22 -51 29 -94z m-1775 0 c27 -13 76 -29 110 -34 34
-5 66 -13 71 -16 15 -9 3 -41 -40 -110 -138 -215 -165 -397 -67 -443 l28 -13
-88 -45 c-105 -53 -92 -51 35 6 60 27 103 40 123 38 31 -3 31 -3 -76 -115
-122 -129 -239 -221 -341 -270 -91 -43 -193 -52 -339 -29 -182 28 -265 67
-265 123 0 16 31 74 77 144 66 102 79 116 95 108 26 -14 23 -55 -9 -116 -25
-50 -25 -54 -9 -72 21 -24 128 -51 198 -51 66 0 114 27 134 76 12 29 17 34 29
24 8 -7 15 -21 15 -30 0 -24 -45 -77 -71 -85 -11 -4 -18 -9 -16 -12 7 -7 59
22 78 43 30 34 31 58 5 97 -20 29 -22 38 -12 52 11 16 16 15 64 -9 78 -40 122
-32 122 21 0 31 -38 68 -89 89 -23 9 -41 18 -41 21 0 8 101 153 106 153 4 0
19 -11 36 -25 38 -32 61 -32 87 1 28 36 27 42 -15 78 -106 90 -107 92 -101
117 14 50 23 54 57 26 44 -37 79 -45 97 -22 32 45 10 68 -79 85 -54 11 -138
55 -146 78 -9 29 158 -6 247 -52 35 -19 35 -4 -1 22 -10 7 -18 19 -18 27 0 7
-18 29 -40 48 -39 33 -46 50 -34 81 8 22 27 20 83 -9z m-332 -31 c-2 -3 -12
-2 -21 2 -16 6 -16 8 1 26 18 20 18 20 21 -2 2 -12 2 -24 -1 -26z m218 26 c3
-6 -1 -7 -9 -4 -18 7 -21 14 -7 14 6 0 13 -4 16 -10z m-223 -71 c44 -28 47
-36 13 -45 -17 -4 -39 2 -70 21 -49 28 -61 45 -51 71 7 17 16 13 108 -47z
m217 -4 c2 -3 2 -8 -2 -11 -10 -11 -77 17 -77 32 0 12 5 12 37 -1 20 -9 39
-18 42 -20z m56 -25 c3 -5 -1 -10 -9 -10 -9 0 -16 5 -16 10 0 6 4 10 9 10 6 0
13 -4 16 -10z m-379 -12 c-3 -7 -13 -40 -23 -73 -17 -56 -18 -58 -24 -30 -12
54 -9 75 11 95 22 22 45 27 36 8z m216 -35 c45 -30 39 -38 -34 -48 -26 -4 -50
-11 -53 -16 -3 -4 29 -36 72 -69 137 -107 153 -121 153 -136 0 -45 -63 -12
-223 115 -85 68 -114 109 -97 141 12 23 21 25 37 9 7 -7 20 -4 44 10 44 27 55
26 101 -6z m38 -83 c0 -15 -27 -23 -47 -15 -17 7 -16 8 2 15 28 12 45 12 45 0z
m-206 -39 l37 -29 -51 -17 c-68 -23 -85 -9 -58 50 15 32 27 32 72 -4z m-141
-4 c5 -15 -38 -77 -54 -77 -14 0 -11 27 6 60 16 31 39 39 48 17z m257 -277 c0
-4 -8 -17 -17 -29 -18 -22 -18 -21 -131 86 -62 59 -112 114 -112 121 0 7 5 22
11 33 9 18 20 10 130 -92 65 -61 119 -115 119 -119z m1319 227 c-237 -196
-445 -412 -534 -556 -42 -67 -59 -83 -25 -22 43 76 127 178 250 305 113 116
291 276 307 276 3 0 4 -2 2 -3z m-1298 -49 c22 -17 36 -35 32 -39 -5 -3 -38
-9 -75 -13 -61 -6 -68 -5 -97 20 -17 14 -31 29 -31 33 0 9 70 28 108 30 13 0
41 -13 63 -31z m2269 -68 c-14 -34 -132 -150 -152 -150 -8 0 -19 5 -25 11 -8
8 4 24 46 59 64 53 108 102 125 139 l11 26 3 -29 c2 -15 -2 -41 -8 -56z
m-2591 -21 c-24 -71 -45 -103 -36 -54 7 38 46 129 52 123 3 -2 -5 -33 -16 -69z
m131 -38 l34 -28 -52 -12 c-65 -14 -89 -14 -97 -1 -11 17 6 51 28 60 36 15 51
11 87 -19z m-169 -57 c30 -9 124 -31 209 -49 190 -40 210 -48 210 -76 0 -20
-4 -21 -42 -15 -24 3 -95 13 -159 21 -116 15 -273 55 -291 73 -11 11 -3 62 10
62 5 0 33 -7 63 -16z m75 -139 c18 -9 56 -15 97 -15 73 0 85 -13 36 -37 -59
-31 -148 -5 -162 47 -6 24 -7 24 29 5z m561 -217 c58 -63 83 -159 49 -187 -11
-9 -14 -1 -18 49 -3 47 -11 70 -36 105 -18 25 -32 48 -32 50 0 12 18 3 37 -17z
m-34 -45 c55 -81 58 -139 9 -185 -39 -38 -425 -260 -577 -334 -199 -96 -327
-114 -500 -69 -81 22 -169 62 -196 91 -20 22 -21 26 -8 51 23 47 23 49 -2 28
l-24 -20 18 22 c20 23 49 24 55 2 3 -11 1 -11 -7 1 -9 13 -11 13 -11 -2 0 -53
125 -131 212 -131 27 -1 43 -4 37 -8 -7 -4 37 -5 97 -2 197 8 276 42 641 273
29 18 76 39 105 46 49 11 51 12 17 13 -55 1 -93 -16 -229 -103 -251 -161 -369
-208 -520 -208 -109 0 -197 23 -273 71 -83 53 -78 62 215 375 l83 89 39 -27
c97 -65 387 -107 525 -75 59 13 138 53 197 99 27 21 54 39 60 39 6 1 23 -16
37 -36z m463 -30 c-8 -15 -15 -25 -16 -21 0 12 23 58 27 54 3 -2 -2 -17 -11
-33z m-25 -60 c-12 -20 -14 -14 -5 12 4 9 9 14 11 11 3 -2 0 -13 -6 -23z m73
-65 c-20 -33 -96 -127 -131 -160 -50 -47 -155 -114 -443 -280 -379 -219 -601
-321 -808 -374 -107 -27 -155 -30 -171 -11 -9 11 8 17 90 30 55 9 150 33 211
53 181 61 586 270 754 389 63 45 102 92 167 201 57 94 121 135 247 153 83 13
92 13 84 -1z m-1694 -161 c0 -2 -17 -19 -37 -38 l-38 -34 34 38 c33 34 41 42
41 34z m1950 -112 c0 -9 -203 -147 -337 -228 -131 -79 -293 -167 -309 -167 -4
0 14 22 39 49 35 37 51 65 64 111 14 54 19 61 37 57 12 -3 54 -12 95 -21 l73
-17 42 25 c23 14 96 63 162 110 110 79 134 94 134 81z m-1900 -69 c52 -30 47
-35 -8 -7 -20 10 -48 32 -62 48 l-25 28 25 -22 c14 -12 45 -33 70 -47z"/>
<path d="M2601 3434 c-12 -15 -21 -30 -21 -34 0 -4 9 -19 21 -34 16 -20 29
-26 58 -26 45 0 71 24 71 66 0 41 -16 54 -66 54 -34 0 -47 -5 -63 -26z"/>
<path d="M3849 3044 c-8 -9 -71 -66 -142 -127 -70 -60 -146 -135 -167 -165
-57 -79 -49 -87 9 -11 26 36 79 90 117 120 100 81 210 186 203 193 -3 4 -12
-1 -20 -10z"/>
<path d="M3015 2888 l-50 -53 53 50 c48 46 57 55 49 55 -1 0 -25 -24 -52 -52z"/>
<path d="M2924 2788 l-19 -23 23 19 c21 18 27 26 19 26 -2 0 -12 -10 -23 -22z"/>
<path d="M2869 2723 c-13 -16 -12 -17 4 -4 9 7 17 15 17 17 0 8 -8 3 -21 -13z"/>
<path d="M2819 2663 c-13 -16 -12 -17 4 -4 16 13 21 21 13 21 -2 0 -10 -8 -17
-17z"/>
<path d="M3134 2548 l-19 -23 23 19 c21 18 27 26 19 26 -2 0 -12 -10 -23 -22z"/>
<path d="M3059 2493 c-13 -16 -12 -17 4 -4 16 13 21 21 13 21 -2 0 -10 -8 -17
-17z"/>
<path d="M3008 2464 c-38 -20 -36 -28 2 -9 17 9 30 18 30 20 0 7 -1 6 -32 -11z"/>
<path d="M2930 2420 c-9 -6 -10 -10 -3 -10 6 0 15 5 18 10 8 12 4 12 -15 0z"/>
<path d="M1535 2088 c-53 -61 -54 -84 -6 -112 88 -51 361 -83 451 -52 l45 15
-40 -7 c-165 -29 -475 28 -475 87 0 11 4 23 10 26 12 7 73 95 66 95 -2 0 -25
-24 -51 -52z"/>
</g>
</svg>